# xmcd
#
# Track frame offsets:
#	150
#	24525
#	54300
#	81150
#	102525
#	129225
#	152475
#	179400
#	213300
#	233250
#
# Disc length: 3475 seconds
#
# Revision: 0
# Processed by: cddbd v1.4PL0 Copyright (c) Steve Scherf et al.
# Submitted via: EasyCDDAExtractor 5.0.4.1
#
DISCID=730d910a
DTITLE=Sam Taylor - Bluz Man
DYEAR=2002
DGENRE=Blues
TTITLE0=Blues On The Move
TTITLE1=Next In Line
TTITLE2=Fussin' All Night
TTITLE3=Long Handled Spoon
TTITLE4=Lay Your Lovin' Down
TTITLE5=What A Women
TTITLE6=Paws
TTITLE7=Feed Your Dog
TTITLE8=Love Needs A Witness
TTITLE9=Shopping Bag Lady
EXTD=
EXTT0=
EXTT1=
EXTT2=
EXTT3=
EXTT4=
EXTT5=
EXTT6=
EXTT7=
EXTT8=
EXTT9=
PLAYORDER=
